<svg xmlns="http://www.w3.org/2000/svg" width="337" height="50" fill="none">
    <path fill="#fff" fill-rule="evenodd"
          d="M13.404 10.353H0V1.196h37.157v9.157H23.754V48.18h-10.35V10.353Zm68.61 19.71c0 2.787-.421 5.353-1.26 7.697a16.938 16.938 0 0 1-3.751 6.107c-1.66 1.724-3.728 3.076-6.204 4.05-2.476.973-5.332 1.46-8.56 1.46-3.274 0-6.149-.487-8.624-1.46a17.171 17.171 0 0 1-6.205-4.05 16.94 16.94 0 0 1-3.75-6.107 22.667 22.667 0 0 1-1.26-7.697V1.196h10.35v28.47c0 1.46.234 2.808.697 4.049.466 1.237 1.118 2.31 1.957 3.217a8.94 8.94 0 0 0 3.02 2.125c1.171.509 2.446.761 3.814.761a8.99 8.99 0 0 0 6.767-2.886c.843-.906 1.496-1.98 1.962-3.22a11.44 11.44 0 0 0 .697-4.05V1.2h10.35v28.863ZM91.57 1.196h18.18c2.386 0 4.656.23 6.8.695 2.144.464 4.027 1.24 5.641 2.322 1.615 1.084 2.897 2.544 3.848 4.383.951 1.835 1.428 4.123 1.428 6.868 0 3.318-.865 6.137-2.587 8.459-1.727 2.325-4.251 3.796-7.569 4.413l11.946 19.844h-12.408l-9.821-18.782h-5.108V48.18H91.57V1.196Zm10.35 19.443h6.103c.932 0 1.913-.033 2.953-.1 1.04-.067 1.98-.264 2.819-.595a4.9 4.9 0 0 0 2.092-1.56c.551-.706.831-1.705.831-2.986 0-1.197-.246-2.147-.731-2.857a4.86 4.86 0 0 0-1.86-1.623 8.248 8.248 0 0 0-2.588-.766 21.104 21.104 0 0 0-2.852-.196h-6.767v10.683Zm32.646-19.443h17.516c2.036 0 4.083.141 6.137.431a16.75 16.75 0 0 1 5.54 1.724 10.605 10.605 0 0 1 3.982 3.618c1.018 1.549 1.529 3.603 1.529 6.17 0 2.656-.746 4.855-2.226 6.605-1.48 1.746-3.437 2.998-5.872 3.752v.13c1.551.223 2.953.653 4.213 1.293a11.234 11.234 0 0 1 3.255 2.455 10.456 10.456 0 0 1 2.088 3.484c.485 1.33.731 2.745.731 4.25 0 2.478-.53 4.543-1.592 6.204a12.529 12.529 0 0 1-4.117 4.012c-1.677 1.021-3.571 1.75-5.671 2.191a30.365 30.365 0 0 1-6.271.665h-19.242V1.196Zm10.35 18.778h7.498c.798 0 1.581-.085 2.356-.264a6.488 6.488 0 0 0 2.088-.861 4.462 4.462 0 0 0 1.495-1.598c.373-.661.563-1.456.563-2.385 0-.973-.209-1.783-.63-2.422a4.389 4.389 0 0 0-1.625-1.493 7.75 7.75 0 0 0-2.256-.765 13.533 13.533 0 0 0-2.453-.23h-7.036v10.018Zm0 19.447h9.291c.794 0 1.603-.09 2.424-.268a6.317 6.317 0 0 0 2.222-.928 5.28 5.28 0 0 0 1.625-1.724c.418-.706.631-1.571.631-2.59 0-1.106-.28-2.001-.832-2.685a5.252 5.252 0 0 0-2.088-1.56 10.71 10.71 0 0 0-2.722-.732 20.204 20.204 0 0 0-2.721-.197h-7.83v10.684Zm30.126-14.733c0-3.763.63-7.17 1.89-10.22a22.407 22.407 0 0 1 5.276-7.8 23.236 23.236 0 0 1 8.027-4.94C193.329.571 196.719 0 200.387 0c3.673 0 7.058.576 10.153 1.724a23.246 23.246 0 0 1 8.031 4.944 22.417 22.417 0 0 1 5.272 7.8c1.264 3.05 1.894 6.457 1.894 10.216 0 3.764-.634 7.17-1.894 10.223a22.416 22.416 0 0 1-5.272 7.801 23.25 23.25 0 0 1-8.031 4.941c-3.095 1.152-6.48 1.727-10.153 1.727-3.668 0-7.054-.575-10.152-1.727a23.237 23.237 0 0 1-8.027-4.94 22.408 22.408 0 0 1-5.276-7.802c-1.26-3.053-1.89-6.46-1.89-10.219Zm10.749 0c0 2.21.343 4.235 1.029 6.07.686 1.839 1.67 3.429 2.953 4.78 1.282 1.35 2.818 2.4 4.612 3.151a15.37 15.37 0 0 0 6.002 1.13 15.372 15.372 0 0 0 6.003-1.13c1.793-.75 3.333-1.802 4.616-3.15 1.282-1.352 2.267-2.942 2.953-4.78.686-1.836 1.029-3.86 1.029-6.07 0-2.17-.343-4.184-1.029-6.041a13.846 13.846 0 0 0-2.953-4.81 13.476 13.476 0 0 0-4.612-3.154 15.373 15.373 0 0 0-6.003-1.126 15.37 15.37 0 0 0-6.006 1.126c-1.79.754-3.33 1.805-4.612 3.153a13.846 13.846 0 0 0-2.953 4.811 17.298 17.298 0 0 0-1.029 6.04Zm45.915 17.786c0-.843.157-1.638.466-2.392a5.918 5.918 0 0 1 3.251-3.25 6.21 6.21 0 0 1 2.386-.465c.843 0 1.641.156 2.39.465a5.92 5.92 0 0 1 3.252 3.25 6.24 6.24 0 0 1 .466 2.392c0 .84-.157 1.635-.466 2.389a5.92 5.92 0 0 1-3.252 3.25 6.203 6.203 0 0 1-2.386.465 6.211 6.211 0 0 1-2.39-.465 5.918 5.918 0 0 1-3.251-3.25 6.213 6.213 0 0 1-.466-2.389Zm36.166-41.278h8.556l20.44 46.984h-11.682l-4.049-9.955h-18.246l-3.915 9.955h-11.409l20.305-46.984Zm3.978 13.67-5.705 14.6h11.48l-5.775-14.6Zm27.273 23.756 23.821-28.269h-22.96V1.196h35.502v9.157l-23.358 28.27h24.153v9.557h-37.158v-9.558Z"
          clip-rule="evenodd"/>
</svg>
